<?xml version="1.0" encoding="UTF-8"?>
<svg id="Isolation_Mode" xmlns="http://www.w3.org/2000/svg" version="1.1" viewBox="0 0 640 512">
  <!-- Generator: Adobe Illustrator 29.7.0, SVG Export Plug-In . SVG Version: 2.1.1 Build 138)  -->
  <defs>
    <style>
      .st0 {
        fill: #1f1d1d;
      }
    </style>
  </defs>
  <path class="st0" d="M377.32,497.61h-.04c-13.64,0-26.44-5.33-36.06-14.96l-6.57-6.57,6.24-6.87,151.51-151.53c13.06-13.06,20.24-30.4,20.24-48.84s-7.18-35.77-20.24-48.82L305.76,33.31h64.82c13.64,0,26.48,5.31,36.09,14.96l184.49,184.45c19.88,19.93,19.88,52.32,0,72.22l-177.7,177.7c-9.65,9.65-22.49,14.96-36.13,14.96ZM361.51,474.89c4.86,2.76,10.23,4.15,15.82,4.15h0c8.71,0,16.87-3.37,23-9.52l177.7-177.7c12.66-12.66,12.66-33.28,0-45.96L393.54,61.41c-6.13-6.15-14.29-9.52-22.96-9.52h-19.99l154.96,155c16.58,16.56,25.68,38.56,25.68,61.95s-9.1,45.41-25.68,61.97l-144.04,144.08ZM265.89,497.61h-.04c-13.64,0-26.44-5.33-36.06-14.96L45.32,298.2c-9.65-9.67-14.94-22.49-14.94-36.11V84.39c0-28.17,22.92-51.07,51.07-51.07h177.7c13.64,0,26.48,5.31,36.09,14.96l184.49,184.45c19.88,19.93,19.88,52.32,0,72.22l-177.7,177.7c-9.65,9.65-22.49,14.96-36.13,14.96ZM81.44,51.89c-17.92,0-32.5,14.58-32.5,32.5v177.7c0,8.67,3.37,16.83,9.5,22.98l184.49,184.45c6.13,6.13,14.26,9.52,22.96,9.52h0c8.71,0,16.87-3.37,23-9.52l177.7-177.7c12.66-12.66,12.66-33.28,0-45.96L282.11,61.41c-6.13-6.15-14.29-9.52-22.96-9.52H81.44ZM137.16,191.17c-28.15,0-51.07-22.91-51.07-51.07s22.92-51.07,51.07-51.07,51.07,22.91,51.07,51.07-22.92,51.07-51.07,51.07ZM137.16,107.6c-17.92,0-32.5,14.58-32.5,32.5s14.58,32.5,32.5,32.5,32.5-14.58,32.5-32.5-14.58-32.5-32.5-32.5Z"/>
</svg>