<?xml version="1.0" encoding="UTF-8"?>
<svg id="Isolation_Mode" xmlns="http://www.w3.org/2000/svg" version="1.1" viewBox="0 0 1640.86 1640.86">
  <!-- Generator: Adobe Illustrator 29.0.1, SVG Export Plug-In . SVG Version: 2.1.0 Build 192)  -->
  <defs>
    <style>
      .st0 {
        fill: #231f20;
      }
    </style>
  </defs>
  <path class="st0" d="M1605.1,877.99l-151.8-249.46-1.12-1.12c-2.23-3.35-5.58-5.58-8.93-7.81-1.11,0-1.67,0-2.23-.56-.56,0-1.12-.56-1.67-.56h-.56l-1.68-.56h-.56l-611.1-166.31c-3.91-1.12-7.81-1.12-11.72,0l-613.89,166.87s-.56.56-1.12.56l-.56.56c-3.35,1.12-6.7,3.35-9.49,6.14-.56,1.11-.56,1.67-1.12,2.79-.56.56-1.11,1.67-1.11,2.23l-150.68,247.23c-3.35,6.14-4.47,12.84-1.68,19.54,2.23,6.14,7.26,11.16,13.95,13.39l136.17,43.53.56,441.45c0,10.05,6.7,18.42,16.19,21.21l611.1,179.7c2.23.56,4.47.56,6.7.56h1.68c2.23,0,4.47,0,6.14-.56l612.78-179.7c9.49-2.79,16.18-11.16,16.18-21.21l.56-441.45,136.73-43.53c6.7-2.23,11.72-7.26,13.95-13.39,2.79-6.7,1.67-13.39-1.68-19.54ZM88.78,876.88l128.36-210.96,474.93,129.48,89.29,24-142.31,233.28L88.78,876.88ZM796.43,1545.46l-567.02-166.31-.56-410.75,413.54,132.27c2.23.56,4.47,1.12,6.7,1.12,7.81,0,15.07-3.91,18.98-11.16l128.92-211.51-.56,666.35ZM796.99,775.86l-505.07-136.17,505.07-137.29v273.46ZM842.19,502.4l506.18,137.29-3.91,1.11-502.28,135.06v-273.46ZM1410.88,1379.15l-568.13,166.31-.56-669.14,130.59,214.3c3.91,7.26,11.16,11.16,18.98,11.16,2.23,0,4.47-.56,6.7-1.12l412.98-131.71-.56,410.2ZM1001.81,1052.67l-142.31-233.84,564.22-152.91,128.36,210.96-550.27,175.79Z"/>
  <path class="st0" d="M1322.24,484.08c3.6,2.15,7.58,3.19,11.5,3.19,7.58,0,14.96-3.84,19.16-10.79l133.36-221.16c6.35-10.55,2.94-24.28-7.6-30.66-10.49-6.24-24.25-2.94-30.66,7.6l-133.36,221.16c-6.35,10.55-2.94,24.28,7.6,30.66Z"/>
  <path class="st0" d="M1085.46,400.09c2.18.68,4.39.98,6.54.98,9.56,0,18.39-6.16,21.34-15.78l50.11-163.45c3.62-11.77-3-24.28-14.8-27.88-11.91-3.65-24.25,3-27.88,14.8l-50.11,163.45c-3.62,11.77,3,24.28,14.8,27.88Z"/>
  <path class="st0" d="M535.34,385.29c2.94,9.62,11.77,15.78,21.34,15.78,2.15,0,4.36-.3,6.54-.98,11.8-3.6,18.42-16.1,14.8-27.88l-50.11-163.45c-3.6-11.77-16-18.42-27.88-14.8-11.8,3.6-18.42,16.1-14.8,27.88l50.11,163.45Z"/>
  <path class="st0" d="M295.81,476.47c4.17,6.95,11.55,10.79,19.13,10.79,3.92,0,7.9-1.04,11.5-3.22,10.57-6.35,13.95-20.08,7.58-30.63l-133.39-221.16c-6.32-10.55-20.14-13.98-30.63-7.58-10.57,6.35-13.95,20.08-7.58,30.63l133.39,221.16Z"/>
  <path class="st0" d="M824.32,362.95c12.32,0,22.32-10,22.32-22.32V65.81c0-12.32-10-22.32-22.32-22.32s-22.32,10-22.32,22.32v274.82c0,12.32,10,22.32,22.32,22.32Z"/>
</svg>