<?xml version="1.0" encoding="UTF-8"?>
<svg id="Isolation_Mode" xmlns="http://www.w3.org/2000/svg" version="1.1" viewBox="0 0 640 512">
  <!-- Generator: Adobe Illustrator 29.0.1, SVG Export Plug-In . SVG Version: 2.1.0 Build 192)  -->
  <path d="M160,368c-26.5,0-48,21.5-48,48s21.5,48,48,48,48-21.5,48-48-21.5-48-48-48ZM160,444c-15.44,0-28-12.56-28-28s12.56-28,28-28,28,12.56,28,28-12.56,28-28,28Z"/>
  <path d="M460.1,144h-44.1v112h144v-12.1l-99.9-99.9ZM436,236v-72h15.82l72,72h-87.82Z"/>
  <path d="M624,352h-16v-108.1c0-12.7-5.1-24.9-14.1-33.9l-99.9-99.9c-9-9-21.2-14.1-33.9-14.1h-44.1v-48c0-26.5-21.5-48-48-48H48C21.5,0,0,21.5,0,48v320c0,26.5,21.5,48,48,48h16c0,53,43,96,96,96s96-43,96-96h128c0,53,43,96,96,96s96-43,96-96h48c8.8,0,16-7.2,16-16v-32c0-8.8-7.2-16-16-16ZM620,396h-64v20c0,41.91-34.09,76-76,76s-76-34.09-76-76v-20h-168v20c0,41.91-34.09,76-76,76s-76-34.09-76-76v-20h-36c-15.44,0-28-12.56-28-28V48c0-15.44,12.56-28,28-28h320c15.44,0,28,12.56,28,28v68h64.1c7.32,0,14.52,3,19.76,8.24l99.9,99.9c5.24,5.24,8.24,12.44,8.24,19.76v128.1h32v24Z"/>
  <path d="M480,368c-26.5,0-48,21.5-48,48s21.5,48,48,48,48-21.5,48-48-21.5-48-48-48ZM480,444c-15.44,0-28-12.56-28-28s12.56-28,28-28,28,12.56,28,28-12.56,28-28,28Z"/>
</svg>