<?xml version="1.0" encoding="utf-8"?>
<!-- Generator: Adobe Illustrator 21.0.2, SVG Export Plug-In . SVG Version: 6.00 Build 0)  -->
<svg version="1.1" xmlns="http://www.w3.org/2000/svg" xmlns:xlink="http://www.w3.org/1999/xlink" x="0px" y="0px"
	 viewBox="0 0 195.5 175.7" style="enable-background:new 0 0 195.5 175.7;" xml:space="preserve">
<style type="text/css">
	.st0{fill:#646364;}
</style>
<g id="Layer_1">
</g>
<g id="Layer_2">
	<path class="st0" d="M112.8,122.1c-4.7,2.7-9.8,4-14.8,4c-5.3,0-10.5-1.4-15.1-4.1L1.6,69.3c-1,2-1.6,4.3-1.6,6.6v83.7
		c0,8.8,7.6,16.1,16.9,16.1h161.8c9.3,0,16.9-7.2,16.9-16.1V75.9c0-2.3-0.5-4.5-1.5-6.5L112.8,122.1z M65.5,130.1l-48.5,34.5
		c-0.5,0.4-1.1,0.5-1.6,0.5c-0.9,0-1.8-0.4-2.3-1.2c-0.9-1.3-0.6-3,0.7-4l48.5-34.5c1.3-0.9,3.1-0.6,4,0.7
		C67.1,127.4,66.8,129.2,65.5,130.1z M183.3,163.9c-0.6,0.8-1.4,1.2-2.3,1.2c-0.6,0-1.1-0.2-1.6-0.5l-49.9-35.3
		c-1.3-0.9-1.6-2.7-0.7-4c0.9-1.3,2.7-1.6,4-0.7l49.9,35.3C183.9,160.8,184.2,162.6,183.3,163.9z"/>
	<path class="st0" d="M156,42.2V14.3c0-7.9-6.4-14.3-14.3-14.3L52.1,0c-7.9,0-14.3,6.4-14.3,14.3v29L4.8,64.6l33.1,21.5l5.7,3.7
		V14.3c0-4.7,3.9-8.6,8.6-8.6l89.5,0c4.7,0,8.6,3.9,8.6,8.6v24.2l0,52.6l5.7-3.7l34.8-22.6L156,42.2z"/>
	<path class="st0" d="M69.3,68h53.9c3.4,0,6.2-1.9,6.2-4.3c0-2.4-2.8-4.3-6.2-4.3H69.3c-3.4,0-6.2,1.9-6.2,4.3
		C63.1,66.1,65.9,68,69.3,68z M123.2,77.2H69.8c-3.4,0-6.2,1.9-6.2,4.3c0,2.4,2.8,4.2,6.2,4.2h53.5c3.4,0,6.2-1.9,6.2-4.2
		C129.4,79.1,126.6,77.2,123.2,77.2z M69.3,50.3h53.9c3.4,0,6.2-1.9,6.2-4.3c0-2.4-2.8-4.3-6.2-4.3H69.3c-3.4,0-6.2,1.9-6.2,4.3
		C63.1,48.4,65.9,50.3,69.3,50.3z"/>
</g>
</svg>
