<?xml version="1.0" encoding="utf-8"?>
<!-- Generator: Adobe Illustrator 21.0.2, SVG Export Plug-In . SVG Version: 6.00 Build 0)  -->
<svg version="1.1" xmlns="http://www.w3.org/2000/svg" xmlns:xlink="http://www.w3.org/1999/xlink" x="0px" y="0px"
	 viewBox="0 0 165.5 154" style="enable-background:new 0 0 165.5 154;" xml:space="preserve">
<style type="text/css">
	.st0{fill:#646364;}
</style>
<g id="Layer_1">
	<path class="st0" d="M89.9,78.7H78.3v29.4h27.9c2.7-3.9,4.7-7.7,6.1-11c0.3-2.2,0.6-4.4,0.8-6.7l-10.8-5.4L89.9,78.7z M102,21.2
		C95.4,8.6,86.9,1.2,78.3,0v37.2h30.1C106.6,31.3,104.5,25.9,102,21.2z M78.3,43.2v29.5h20.1l5.2-1.5l10-2.9
		c-0.5-8.9-1.7-17.4-3.6-25.1H78.3z M78.3,129c10.2-3.3,17.7-8.9,23.2-15H78.3V129z M30,78.7H0c0.3,10.5,2.7,20.4,6.8,29.4h26.5
		C31.3,98.9,30.2,89,30,78.7z M33.6,43.2H7.4c-4.3,9-6.9,19-7.4,29.5h30C30.3,62.3,31.5,52.3,33.6,43.2z M9.8,114
		c0.1,0.2,0.2,0.3,0.3,0.4c10,9.4,21.1,13.8,30.4,15.8c-2.2-5-4.2-10.4-5.8-16.2L9.8,114z M37.4,72.7h33.5V43.2H41.2
		C39,52.2,37.7,62.2,37.4,72.7z M98.4,3.3c3.8,4,7.2,8.9,10.1,14.5c3,5.8,5.6,12.3,7.6,19.4h24.5C131.3,21.3,116.3,9,98.4,3.3z
		 M143.8,43.2h-26.2c1.7,7.2,2.7,14.9,3.3,22.9l23.9-7l4.2-1.2C147.8,52.7,146,47.8,143.8,43.2z M49.2,21.2
		c-2.5,4.7-4.6,10.1-6.4,16h28.1V0.4C63,2.5,55.3,9.6,49.2,21.2z M42.6,17.8C45.6,12.2,49,7.3,52.8,3.3C34.9,9,20,21.3,10.6,37.2
		h24.5C37.1,30.1,39.6,23.6,42.6,17.8z M49.2,131.2c0.1,0.2,0.2,0.3,0.3,0.4c3.5,0.3,6.5,0.4,8.7,0.4c4.6,0,8.8-0.4,12.8-1.2V114
		H42.4C44.3,120.3,46.6,126.1,49.2,131.2z M40.9,108.1h30V78.7H37.4C37.6,89.1,38.8,99.1,40.9,108.1z"/>
	<path class="st0" d="M27.8,134.9c51.5,40.9,105,9.8,120.3-34.4c5.1,3,17.4,9.2,17.4,9.2l-15.9-43.1l-43.9,11.7l17.6,8.9
		C123.3,87.2,110.4,157.4,27.8,134.9z"/>
</g>
<g id="Layer_2">
</g>
</svg>
