<?xml version="1.0" encoding="utf-8"?>
<!-- Generator: Adobe Illustrator 21.0.2, SVG Export Plug-In . SVG Version: 6.00 Build 0)  -->
<svg version="1.1" id="Layer_1" xmlns="http://www.w3.org/2000/svg" xmlns:xlink="http://www.w3.org/1999/xlink" x="0px" y="0px"
	 viewBox="0 0 172.4 164.7" style="enable-background:new 0 0 172.4 164.7;" xml:space="preserve">
<style type="text/css">
	.st0{fill:#646364;}
</style>
<g>
	<path class="st0" d="M83.6,137.6h37.5c2.2,0,4-1.8,4-4c0-2.2-1.8-4-4-4H83.6c-0.6,0-1.1,0.1-1.6,0.3c-0.7,1.5-1.4,3-2.3,4.4
		C80,136.2,81.6,137.6,83.6,137.6z"/>
	<path class="st0" d="M142.6,118.6c0-2.2-1.8-4-4-4H85c0,0.2,0,0.4,0,0.6c0,2.5-0.3,5-0.7,7.4h54.3
		C140.8,122.6,142.6,120.8,142.6,118.6z"/>
	<path class="st0" d="M147.6,103.6c0-2.2-1.8-4-4-4H83.6c-0.7,0-1.3,0.2-1.8,0.5c1.1,2.4,2,4.9,2.5,7.5h59.4
		C145.9,107.6,147.6,105.8,147.6,103.6z"/>
	<path class="st0" d="M172,67.6c0-0.3,0-0.6-0.1-0.9l-20-62.6c-0.8-2.5-3.1-4.2-5.7-4.2H26c-2.6,0-4.9,1.7-5.7,4.2l-20,62.6
		c-0.1,0.3-0.1,0.6-0.1,0.9C0.1,68,0,68.2,0,68.6v71.3l12-12v-9.9c-0.1-1.8-0.1-3.5,0-5.3V72.6h148.1v80.1H36.4l-12,12h141.8
		c3.3,0,6-2.7,6-6V68.6C172.2,68.2,172,68,172,67.6z M57.4,64.6H13.6C18,51,28.6,17.8,30.4,12h32.3L57.4,64.6z M82.1,64.6H65.5
		c0.7-6.6,4.2-42.4,5.3-52.6h11.3V64.6z M90.1,64.6V12h11.3c1,10.1,4.6,46,5.3,52.6H90.1z M114.7,64.6L109.5,12h32.3
		c1.8,5.8,12.5,38.9,16.8,52.6H114.7z"/>
</g>
<path class="st0" d="M3,159.4l2.1,2.1c2.3,2.3,6,2.3,8.4,0l1.7-1.7c0,0,0,0,0,0l21-21c10,5.3,22.7,3.7,31.2-4.7
	c10.4-10.4,10.4-27.2,0-37.6c-10.4-10.4-27.2-10.4-37.6,0c-8.7,8.7-10.1,21.9-4.2,32.1L4.6,149.4c0,0,0,0,0,0L3,151
	C0.6,153.3,0.6,157.1,3,159.4z M37.3,104.1c6.2-6.2,16.1-6.2,22.3,0c6.2,6.2,6.2,16.1,0,22.3c-6.2,6.1-16.1,6.1-22.3,0
	C31.2,120.2,31.2,110.3,37.3,104.1z"/>
</svg>
