<?xml version="1.0" encoding="utf-8"?>
<!-- Generator: Adobe Illustrator 21.0.2, SVG Export Plug-In . SVG Version: 6.00 Build 0)  -->
<svg version="1.1" xmlns="http://www.w3.org/2000/svg" xmlns:xlink="http://www.w3.org/1999/xlink" x="0px" y="0px"
	 viewBox="0 0 172.4 164.7" style="enable-background:new 0 0 172.4 164.7;" xml:space="preserve">
<style type="text/css">
	.st0{fill:#646364;}
</style>
<g id="Layer_1">
</g>
<g id="Layer_2">
	<g>
		<path class="st0" d="M91.7,95.3h52.6c1.9,0,3.5-1.6,3.5-3.5c0-1.9-1.6-3.5-3.5-3.5H91.7c-1.9,0-3.5,1.6-3.5,3.5
			C88.2,93.7,89.8,95.3,91.7,95.3z"/>
		<path class="st0" d="M91.7,108.4h48.2c1.9,0,3.5-1.6,3.5-3.5c0-1.9-1.6-3.5-3.5-3.5H91.7c-1.9,0-3.5,1.6-3.5,3.5
			C88.2,106.8,89.8,108.4,91.7,108.4z"/>
		<path class="st0" d="M169.1,60.3c0-0.3,0-0.5-0.1-0.8L151.5,4.7c-0.7-2.2-2.7-3.7-5-3.7H41.4c-2.3,0-4.3,1.5-5,3.7L18.8,59.5
			c-0.1,0.3,0,0.5-0.1,0.8c0,0.3-0.2,0.5-0.2,0.8v48.7l5.6-5.1c1.5-1.3,3.1-2.3,4.9-2.9V64.6h129.7v70.1H93c0,0.2,0,0.4,0,0.6
			c0,3.9-1.6,7.4-4.3,9.9H164c2.9,0,5.3-2.4,5.3-5.3V61.1C169.3,60.8,169.2,60.5,169.1,60.3z M68.9,57.6H30.5
			c3.8-11.9,13.1-41,14.7-46h28.3L68.9,57.6z M90.4,57.6H75.9c0.6-5.8,3.7-37.2,4.6-46h9.9V57.6z M97.4,57.6v-46h9.9
			c0.9,8.8,4,40.2,4.6,46H97.4z M119,57.6l-4.6-46h28.3c1.6,5,10.9,34.1,14.7,46H119z"/>
		<path class="st0" d="M91.7,121.5h32.9c1.9,0,3.5-1.6,3.5-3.5c0-1.9-1.6-3.5-3.5-3.5H91.7c-1.9,0-3.5,1.6-3.5,3.5
			C88.2,120,89.8,121.5,91.7,121.5z"/>
	</g>
	<path class="st0" d="M40.5,146.4L40.5,146.4c4,3.7,4.3,9.9,0.7,14c-3.7,4-9.9,4.3-14,0.7L6.5,142.1L6.4,142l0,0l-0.2-0.2h0L6,141.7
		l0,0l-0.1-0.1l-0.1-0.1l0,0l-0.1-0.1l-0.1-0.2l0,0c-0.1-0.1-0.2-0.2-0.3-0.4l0,0l-0.1-0.2l0,0l-0.1-0.2l0,0l-0.1-0.1l0-0.1l0,0l0,0
		l-0.1-0.2l-0.1-0.2l0,0l-0.1-0.2l0,0l0,0c-0.4-0.8-0.7-1.6-0.9-2.4l0-0.2l0,0l0-0.2l0,0l0-0.2l0,0l0-0.2v0c0-0.2,0-0.3-0.1-0.5
		l0-0.2v0l0-0.2l0-0.2v0l0-0.2v0l0-0.2v0l0-0.2c0-0.3,0-0.6,0.1-0.9v0l0-0.2l0,0l0-0.2l0,0l0-0.2l0,0l0-0.2c0.1-0.2,0.1-0.5,0.2-0.7
		l0,0l0.1-0.2l0,0l0.1-0.2c0.2-0.4,0.3-0.8,0.5-1.2c0.2-0.3,0.4-0.7,0.6-1l0,0l0.1-0.1l0-0.1c0.2-0.3,0.5-0.7,0.8-1l0,0l0.1-0.1l0,0
		c0.2-0.2,0.4-0.3,0.5-0.5l20.7-18.9c4-3.7,10.3-3.4,14,0.7c3.7,4,3.4,10.3-0.7,14l-2,1.8h37.9c5.5,0,9.9,4.4,9.9,9.9
		c0,5.5-4.4,9.9-9.9,9.9H38.6L40.5,146.4L40.5,146.4z"/>
</g>
</svg>
