<?xml version="1.0" encoding="UTF-8"?>
<svg id="Layer_1" data-name="Layer 1" xmlns="http://www.w3.org/2000/svg" viewBox="0 0 247 58">
  <defs>
    <style>
      .cls-1 {
        fill: #fff200;
      }
    </style>
  </defs>
  <path class="cls-1" d="M235,31.75l1.51-4.51c.13-.37,0-.67-.43-.91-.4-.26-.94-.38-1.63-.38h-9.8l1.55-4.51h4.89l-.83,2.58h7.31l.83-2.58c.26-.86-.42-1.29-2.01-1.29h-14.65c-1.64,0-2.59.43-2.89,1.29l-1.52,4.51c-.12.36,0,.68.41.91.41.25.96.38,1.65.38h9.81l-1.54,4.51h-4.9l.82-2.57h-7.32l-.85,2.57h-11.72l.86-2.57h-7.33l-.84,2.57h-4.9l1.55-4.51h9.72c1.58,0,2.53-.43,2.81-1.3l1.54-4.49c.3-.86-.38-1.29-2-1.29h-14.66c-1.63,0-2.59.43-2.87,1.29l-3.43,10.3h-23.94l3.43-10.3h4.87l-.84,2.58h7.34l.73-2.22c.27-.86-.31-1.64-1.91-1.64h-3.26c-5.16,0-6.67.48-6.67.48l.17-.49h-4.9c-.19.01-.37.01-.53.03h-5.46l-.42,1.29h3.52l-3.42,10.29h-11.73l3.42-10.3c.3-.86-.37-1.29-2-1.29h-17.1l-.43,1.29h12.22l-1.54,4.51h-9.75c-1.58,0-2.52.43-2.83,1.29l-1.54,4.51h-11.73l3.41-10.3c.3-.86-.36-1.29-1.99-1.29h-17.11l-3.87,11.59h-11.72l1.51-4.51c.13-.37,0-.67-.41-.91-.42-.26-.95-.38-1.65-.38h-9.8l1.56-4.51h4.89l-.83,2.58h7.31l.82-2.58c.27-.86-.41-1.29-2-1.29h-14.66c-1.63,0-2.59.43-2.89,1.29l-1.51,4.51c-.14.36,0,.68.41.91.41.25.96.38,1.65.38h9.81l-1.54,4.51h-4.91l.84-2.57h-7.34l-.83,2.57h-5.91V5H5.15v48.01h48.01v-19.96h36.71l-1.66,5.16h7.3l1.71-5.16h144.19l.44-1.29h-6.84ZM194.93,21.45h4.86l-1.54,4.51h-4.85l1.53-4.51ZM29.16,11.01c9.91,0,17.96,8.06,17.96,17.98,0,.95-.1,1.86-.24,2.76h-9.7l.85-2.57h-7.33l-.82,2.57h-4.9l1.54-4.51h9.72c1.59,0,2.53-.43,2.82-1.3l1.54-4.49c.3-.86-.38-1.29-2-1.29h-14.66c-1.64,0-2.59.43-2.88,1.29l-3.42,10.3h-6.21c-.14-.9-.23-1.82-.23-2.76,0-9.92,8.05-17.98,17.98-17.98ZM26.85,25.96l1.55-4.51h4.87l-1.55,4.51h-4.87ZM29.16,46.97c-8.54,0-15.67-5.96-17.51-13.93h34.99c-1.84,7.98-8.97,13.93-17.49,13.93ZM102.59,31.75h-4.93l3.42-10.3h4.93l-3.42,10.3ZM133.86,31.75h-4.89l1.56-4.51h4.88l-1.55,4.51Z"/>
  <g>
    <path class="cls-1" d="M109.46,40.14h.69l.48-1.25h1.32l-.49,1.25h2.11l-.39,1.01h-2.11l-1.09,2.82c-.19.51-.27.74.28.74.74,0,.89-.59,1.12-1.16h1.16c-.63,1.67-1.24,2.17-2.67,2.17s-1.76-.34-1.22-1.73l1.1-2.83h-.69l.39-1.01Z"/>
    <path class="cls-1" d="M116.27,40.97h.04c.61-.81,1.31-.89,2.08-.89,1.45,0,1.66.6,1.14,1.94l-1.41,3.64h-1.32l1.36-3.5c.31-.8.23-1.07-.62-1.07-1.16,0-1.52.55-1.91,1.53l-1.18,3.04h-1.32l3.06-7.88h1.32l-1.24,3.19Z"/>
    <path class="cls-1" d="M125.66,43.9c-.67,1.73-1.71,1.82-3.28,1.82-2.11,0-2.28-.68-1.45-2.81.77-1.97,1.41-2.83,3.64-2.83s2.32.66,1.38,3.06h-3.79c-.46,1.18-.58,1.57.61,1.57.73,0,1.25,0,1.56-.81h1.32ZM124.96,42.31c.44-1.13.31-1.22-.77-1.22-1.14,0-1.31.24-1.69,1.22h2.46Z"/>
    <path class="cls-1" d="M137.17,42.9c-.83,2.13-1.38,2.81-3.69,2.81s-2.33-.69-1.49-2.81c.83-2.14,1.39-2.82,3.69-2.82s2.33.68,1.5,2.82ZM133.3,42.91c-.57,1.47-.61,1.8.57,1.8s1.4-.33,1.97-1.8c.58-1.49.62-1.82-.56-1.82s-1.4.33-1.98,1.82Z"/>
    <path class="cls-1" d="M141.35,40.14l-.32.83h.04c.6-.81,1.3-.89,2.08-.89,1.45,0,1.66.6,1.14,1.94l-1.41,3.64h-1.32l1.36-3.5c.31-.8.24-1.07-.62-1.07-1.16,0-1.52.55-1.91,1.53l-1.18,3.04h-1.32l2.15-5.52h1.32Z"/>
    <path class="cls-1" d="M146.17,45.66h-1.32l3.06-7.88h1.32l-3.06,7.88Z"/>
    <path class="cls-1" d="M149.4,45.66h-1.32l2.14-5.52h1.32l-2.14,5.52ZM152.03,38.9h-1.33l.44-1.12h1.32l-.44,1.12Z"/>
    <path class="cls-1" d="M154.77,40.14l-.32.83h.04c.61-.81,1.3-.89,2.08-.89,1.45,0,1.66.6,1.14,1.94l-1.41,3.64h-1.32l1.36-3.5c.31-.8.24-1.07-.61-1.07-1.16,0-1.53.54-1.91,1.53l-1.18,3.04h-1.32l2.15-5.52h1.32Z"/>
    <path class="cls-1" d="M163.84,43.9c-.68,1.73-1.7,1.82-3.28,1.82-2.11,0-2.28-.68-1.45-2.81.77-1.97,1.42-2.83,3.64-2.83s2.32.66,1.38,3.06h-3.79c-.46,1.18-.57,1.57.61,1.57.74,0,1.25,0,1.56-.81h1.32ZM163.14,42.31c.44-1.13.31-1.22-.78-1.22-1.14,0-1.31.24-1.69,1.22h2.46Z"/>
    <path class="cls-1" d="M172.35,40.97h.04c.62-.73,1.29-.89,2.07-.89,2.05,0,1.61,1.29.95,2.98-.63,1.62-1.25,2.66-3.14,2.66-.67,0-1.33-.13-1.35-.8h-.05l-1.22,3.12h-1.32l3.07-7.9h1.32l-.37.83ZM174.09,43.06c.48-1.25.8-1.97-.41-1.97-1.35,0-1.58.66-2.09,1.97-.46,1.18-.47,1.65.68,1.65.91,0,1.28-.26,1.82-1.65Z"/>
    <path class="cls-1" d="M180.08,44.96h-.03c-.55.73-1.37.75-2.01.75-1.25,0-1.95-.26-1.37-1.75.51-1.32,1.35-1.7,2.71-1.7.67,0,1.33.01,1.4.63h.04l.28-.72c.34-.89.4-1.21-.7-1.21-.58,0-1.06.06-1.34.77h-1.32c.62-1.6,1.75-1.67,3.01-1.67,1.77,0,2.39.27,1.68,2.12l-1.34,3.46h-1.32l.32-.69ZM177.99,43.96c-.3.77-.01.85.88.85.7,0,1.24-.06,1.55-.85.3-.77-.26-.79-.91-.79s-1.21,0-1.51.79Z"/>
    <path class="cls-1" d="M186.41,40.14l-.31.72h.05c.49-.61,1.13-.79,1.77-.79,1.16,0,1.18.69.77,1.73l-.17.44h-1.24l.11-.28c.21-.56.28-.88-.33-.88-.79,0-1.19.45-1.45,1.16l-1.32,3.41h-1.33l2.14-5.52h1.29Z"/>
    <path class="cls-1" d="M190.24,40.14h.69l.49-1.25h1.32l-.49,1.25h2.11l-.4,1.01h-2.11l-1.1,2.82c-.18.51-.27.74.28.74.74,0,.89-.59,1.12-1.16h1.16c-.63,1.67-1.24,2.17-2.67,2.17s-1.76-.34-1.21-1.73l1.1-2.84h-.69l.39-1.01Z"/>
    <path class="cls-1" d="M198.81,41.64c.26-.66-.09-.66-.79-.66s-1.19,0-1.47.73c-.21.55-.07.56,1.06.61,1.28.07,2.47-.03,1.77,1.76-.58,1.49-1.81,1.64-3.21,1.64-1.51,0-2.51,0-1.81-1.8h1.32c-.29.8-.14.89.84.89.79,0,1.24.02,1.54-.73.19-.49.25-.73-1.08-.75-2.01-.03-2.27-.3-1.73-1.71.59-1.51,1.69-1.54,3.11-1.54,1.08,0,2.36.02,1.76,1.56h-1.32Z"/>
    <path class="cls-1" d="M209.71,41.64c.25-.66-.09-.66-.8-.66s-1.19,0-1.47.73c-.21.55-.07.56,1.06.61,1.28.07,2.47-.03,1.77,1.76-.58,1.49-1.81,1.64-3.21,1.64-1.5,0-2.51,0-1.81-1.8h1.33c-.29.8-.14.89.84.89.78,0,1.24.02,1.53-.73.19-.49.25-.73-1.07-.75-2.01-.03-2.27-.3-1.73-1.71.59-1.51,1.69-1.54,3.11-1.54,1.08,0,2.36.02,1.77,1.56h-1.32Z"/>
    <path class="cls-1" d="M212.79,40.14h.69l.48-1.25h1.33l-.49,1.25h2.11l-.39,1.01h-2.11l-1.1,2.82c-.19.51-.28.74.28.74.74,0,.89-.59,1.11-1.16h1.16c-.62,1.67-1.24,2.17-2.67,2.17s-1.76-.34-1.22-1.73l1.1-2.84h-.69l.39-1.01Z"/>
    <path class="cls-1" d="M222.52,42.9c-.83,2.13-1.39,2.81-3.69,2.81s-2.33-.69-1.5-2.81c.83-2.14,1.39-2.82,3.69-2.82s2.33.68,1.5,2.82ZM218.65,42.91c-.57,1.47-.6,1.8.57,1.8s1.4-.33,1.97-1.8c.58-1.49.62-1.82-.56-1.82s-1.4.33-1.98,1.82Z"/>
    <path class="cls-1" d="M226.58,40.14l-.31.72h.06c.5-.61,1.14-.79,1.77-.79,1.17,0,1.18.69.78,1.73l-.17.44h-1.23l.11-.28c.22-.56.29-.88-.33-.88-.79,0-1.19.45-1.45,1.16l-1.32,3.41h-1.32l2.14-5.52h1.29Z"/>
    <path class="cls-1" d="M234.52,43.9c-.67,1.73-1.7,1.82-3.28,1.82-2.11,0-2.28-.68-1.45-2.81.77-1.97,1.42-2.83,3.65-2.83s2.32.66,1.38,3.06h-3.79c-.46,1.18-.58,1.57.61,1.57.73,0,1.24,0,1.56-.81h1.32ZM233.82,42.31c.45-1.13.31-1.22-.77-1.22-1.14,0-1.31.24-1.69,1.22h2.46Z"/>
  </g>
</svg>